<svg xmlns="http://www.w3.org/2000/svg" id="Layer_2" data-name="Layer 2" viewBox="0 0 279.15 71.67"><defs><style>.cls-1{stroke-width:0}</style></defs><g id="Layer_1-2" data-name="Layer 1"><g><g><path d="m0,26.02h5.25v23.31H0v-23.31Zm5.92,11.41l6.3-11.41h5.92l-6.55,11.41,7.04,11.9h-5.92l-6.79-11.9Z" class="cls-1"/><path d="m37.55,45.02h10.33v4.31h-16.31v-4.27l10.26-14.74h-9.8v-4.31h15.68v4.31l-10.15,14.7Z" class="cls-1"/><path d="m69.23,49.68c-2.7,0-5.53-.6-7.53-1.51l.88-4.06c2.14.67,4.31,1.12,6.72,1.12,2.7,0,3.22-.53,3.22-2.49,0-2.1-.11-2.35-3.92-3.19-5.64-1.23-6.48-2.35-6.48-7.39,0-4.66,1.65-6.51,8.05-6.51,2.03,0,4.48.21,7.07.77l-.53,4.41c-2.66-.46-4.38-.67-6.48-.67-2.35,0-2.87.42-2.87,2.14,0,2.24.1,2.28,3.78,3.15,6.3,1.5,6.62,2.73,6.62,7.32s-1.5,6.9-8.54,6.9Z" class="cls-1"/></g><g><path d="m156.65,49.68c-2.03,0-4.59-.35-6.58-1.12l.39-1.68c2.1.63,4.24.94,6.27.94,3.99,0,5.08-1.19,5.08-4.17,0-3.61-.04-3.99-5.22-5.18-5.64-1.3-6.27-2.31-6.27-7,0-3.82,1.4-5.81,7.25-5.81,2.03,0,4.45.35,6.02.81l-.25,1.75c-1.71-.38-3.89-.7-5.71-.7-4.62,0-5.25,1.12-5.25,4.03,0,3.78.11,3.96,5.01,5.18,6.12,1.54,6.48,2.42,6.48,6.83,0,3.82-1.3,6.13-7.21,6.13Z" class="cls-1"/><path d="m184.76,27.87h-7.18v-1.86h16.42v1.86h-7.18v21.46h-2.07v-21.46Z" class="cls-1"/><path d="m215.03,40.09l6.86-14.07h2.14l-7.95,16.14v7.18h-2.07v-7.18l-7.95-16.14h2.13l6.83,14.07Z" class="cls-1"/><path d="m240.26,47.47h10.5v1.85h-12.57v-23.31h2.07v21.46Z" class="cls-1"/><path d="m265.99,26.02h13.13v1.86h-11.06v8.65h10.29v1.86h-10.29v9.1h11.1v1.85h-13.16v-23.31Z" class="cls-1"/></g><g><polygon points="144.73 69.41 107.84 69.41 106.3 71.67 146.27 71.67 144.73 69.41" class="cls-1"/><polygon points="97.26 12.87 97.26 71.67 99.52 68.37 99.52 16.19 97.26 12.87" class="cls-1"/><polygon points="143.53 0 97.26 67.68 97.26 71.67 146.27 0 143.53 0" class="cls-1"/><polygon points="146.27 0 97.26 0 98.8 2.26 144.73 2.26 146.27 0" class="cls-1"/><polygon points="125.41 43.69 141.99 69.41 146.27 71.67 126.87 41.56 125.41 43.69" class="cls-1"/><polygon points="109.61 14.78 101.54 2.26 97.26 0 108.16 16.91 109.61 14.78" class="cls-1"/></g></g></g></svg>